<?xml version="1.0" encoding="UTF-8"?>
<!DOCTYPE svg PUBLIC "-//W3C//DTD SVG 1.1//EN" "http://www.w3.org/Graphics/SVG/1.1/DTD/svg11.dtd">
<svg xmlns="http://www.w3.org/2000/svg" version="1.1" width="480px" height="480px" style="shape-rendering:geometricPrecision; text-rendering:geometricPrecision; image-rendering:optimizeQuality; fill-rule:evenodd; clip-rule:evenodd" xmlns:xlink="http://www.w3.org/1999/xlink">
<g><path style="opacity:1" fill="#b5b5b5" d="M 340.5,117.5 C 339.393,119.847 337.726,120.18 335.5,118.5C 328.284,114.778 320.617,112.445 312.5,111.5C 309.051,110.03 305.384,108.864 301.5,108C 306.329,107.861 310.996,108.694 315.5,110.5C 317.262,110.357 318.929,110.691 320.5,111.5C 321.521,110.998 321.688,110.332 321,109.5C 317.018,101.511 311.518,94.6773 304.5,89C 299.454,84.802 294.121,80.9686 288.5,77.5C 280.669,74.6724 273.002,71.6724 265.5,68.5C 263.511,66.8387 261.178,65.672 258.5,65C 243.534,62.2149 228.868,63.2149 214.5,68C 201.198,74.6511 187.864,81.3178 174.5,88C 159.046,99.9355 146.379,114.269 136.5,131C 136.667,131.5 136.833,132 137,132.5C 138.085,131.707 139.252,131.04 140.5,130.5C 141.271,132.862 142.105,135.196 143,137.5C 143.342,146.905 144.342,156.238 146,165.5C 146.786,168.583 148.619,170.749 151.5,172C 158.518,172.565 165.518,172.399 172.5,171.5C 161.183,175.938 149.35,178.938 137,180.5C 131.606,180.623 128.606,177.957 128,172.5C 127.997,163.229 127.163,154.063 125.5,145C 127.821,140.013 131.487,136.346 136.5,134C 135.049,134.263 133.716,134.096 132.5,133.5C 142.382,117.761 154.049,103.261 167.5,90C 171.333,87.5 175.167,85 179,82.5C 179.333,82.8333 179.667,83.1667 180,83.5C 183.212,82.1446 186.378,80.6446 189.5,79C 181.502,79.4944 174.502,82.4944 168.5,88C 167.551,88.6172 166.718,88.4506 166,87.5C 165.184,88.8228 164.017,89.4894 162.5,89.5C 168.895,83.4038 176.228,78.5705 184.5,75C 197.133,71.1861 209.466,66.5194 221.5,61C 244.938,56.777 267.271,60.1103 288.5,71C 310.406,81.4072 327.739,96.9072 340.5,117.5 Z"/></g>
<g><path style="opacity:1" fill="#c8c8c8" d="M 265.5,68.5 C 273.002,71.6724 280.669,74.6724 288.5,77.5C 294.121,80.9686 299.454,84.802 304.5,89C 311.518,94.6773 317.018,101.511 321,109.5C 321.688,110.332 321.521,110.998 320.5,111.5C 318.929,110.691 317.262,110.357 315.5,110.5C 308.718,95.2174 297.718,84.0507 282.5,77C 263.052,67.1258 242.719,64.4591 221.5,69C 198.94,78.7301 181.607,94.2301 169.5,115.5C 170.167,115.833 170.833,116.167 171.5,116.5C 176.709,114.19 182.042,113.19 187.5,113.5C 183.395,114.479 180.062,116.646 177.5,120C 180.607,130.72 183.441,141.554 186,152.5C 187.251,155.381 189.417,157.214 192.5,158C 195.393,158.631 198.226,159.464 201,160.5C 231.427,157.514 261.927,155.347 292.5,154C 295.789,153.118 299.123,152.452 302.5,152C 305.568,149.718 308.068,146.884 310,143.5C 311.386,134.282 313.552,125.282 316.5,116.5C 315.143,114.814 313.81,113.148 312.5,111.5C 320.617,112.445 328.284,114.778 335.5,118.5C 335.666,128.506 335.5,138.506 335,148.5C 335.111,154 332.944,158.167 328.5,161C 298.184,159.905 267.851,159.572 237.5,160C 230.801,160.361 224.135,161.028 217.5,162C 216.944,162.383 216.611,162.883 216.5,163.5C 206.481,163.785 196.815,165.452 187.5,168.5C 180.639,168.306 173.806,168.639 167,169.5C 160.569,169.068 156.569,165.735 155,159.5C 153.636,149.602 152.136,139.769 150.5,130C 150.493,128.188 151.16,126.688 152.5,125.5C 155.875,124.097 159.209,122.597 162.5,121C 160.512,120.82 158.512,120.986 156.5,121.5C 159.214,110.936 164.881,102.102 173.5,95C 188.969,83.5969 205.636,74.2636 223.5,67C 228.512,66.1293 233.512,65.296 238.5,64.5C 247.571,65.2895 256.571,66.6228 265.5,68.5 Z"/></g>
<g><path style="opacity:1" fill="#d0d0d0" d="M 315.5,110.5 C 310.996,108.694 306.329,107.861 301.5,108C 305.384,108.864 309.051,110.03 312.5,111.5C 313.81,113.148 315.143,114.814 316.5,116.5C 313.552,125.282 311.386,134.282 310,143.5C 308.068,146.884 305.568,149.718 302.5,152C 299.123,152.452 295.789,153.118 292.5,154C 261.927,155.347 231.427,157.514 201,160.5C 198.226,159.464 195.393,158.631 192.5,158C 189.417,157.214 187.251,155.381 186,152.5C 183.441,141.554 180.607,130.72 177.5,120C 180.062,116.646 183.395,114.479 187.5,113.5C 182.042,113.19 176.709,114.19 171.5,116.5C 170.833,116.167 170.167,115.833 169.5,115.5C 181.607,94.2301 198.94,78.7301 221.5,69C 242.719,64.4591 263.052,67.1258 282.5,77C 297.718,84.0507 308.718,95.2174 315.5,110.5 Z"/></g>
<g><path style="opacity:1" fill="#d8d8d8" d="M 235.5,105.5 C 252.437,105.586 269.27,105.586 286,105.5C 290.566,107.858 295.399,109.691 300.5,111C 301.081,111.893 301.415,112.893 301.5,114C 297.657,123.001 293.324,131.835 288.5,140.5C 280.383,148.041 270.716,151.541 259.5,151C 246.856,152.406 234.189,153.073 221.5,153C 215.275,153.15 210.442,150.65 207,145.5C 203.503,135.675 200.003,125.842 196.5,116C 196.833,115.167 197.167,114.333 197.5,113.5C 202.445,111.353 207.445,109.52 212.5,108C 220.367,107.643 228.033,106.81 235.5,105.5 Z"/></g>
<g><path style="opacity:1" fill="#d7d7d7" d="M 240.5,82.5 C 251.996,82.2073 262.662,85.0406 272.5,91C 278.552,96.0526 284.885,100.719 291.5,105C 261.682,102.349 232.015,103.349 202.5,108C 211.737,102.099 220.404,95.4325 228.5,88C 232.475,85.8537 236.475,84.0204 240.5,82.5 Z"/></g>
<g><path style="opacity:1" fill="#bcbcbc" d="M 340.5,117.5 C 344.847,121.845 349.514,125.845 354.5,129.5C 353.25,129.577 352.417,130.244 352,131.5C 350.667,129.5 349.333,127.5 348,125.5C 348.111,136.497 348.111,147.497 348,158.5C 347.941,161.822 346.774,164.656 344.5,167C 339.833,167.667 335.167,167.667 330.5,167C 320.721,165.426 311.055,163.76 301.5,162C 273.123,160.988 244.79,161.488 216.5,163.5C 216.611,162.883 216.944,162.383 217.5,162C 224.135,161.028 230.801,160.361 237.5,160C 267.851,159.572 298.184,159.905 328.5,161C 332.944,158.167 335.111,154 335,148.5C 335.5,138.506 335.666,128.506 335.5,118.5C 337.726,120.18 339.393,119.847 340.5,117.5 Z"/></g>
<g><path style="opacity:1" fill="#bdbdbd" d="M 265.5,68.5 C 256.571,66.6228 247.571,65.2895 238.5,64.5C 233.512,65.296 228.512,66.1293 223.5,67C 205.636,74.2636 188.969,83.5969 173.5,95C 164.881,102.102 159.214,110.936 156.5,121.5C 158.512,120.986 160.512,120.82 162.5,121C 159.209,122.597 155.875,124.097 152.5,125.5C 151.16,126.688 150.493,128.188 150.5,130C 152.136,139.769 153.636,149.602 155,159.5C 156.569,165.735 160.569,169.068 167,169.5C 173.806,168.639 180.639,168.306 187.5,168.5C 182.696,169.861 177.696,170.861 172.5,171.5C 165.518,172.399 158.518,172.565 151.5,172C 148.619,170.749 146.786,168.583 146,165.5C 144.342,156.238 143.342,146.905 143,137.5C 142.105,135.196 141.271,132.862 140.5,130.5C 139.252,131.04 138.085,131.707 137,132.5C 136.833,132 136.667,131.5 136.5,131C 146.379,114.269 159.046,99.9355 174.5,88C 187.864,81.3178 201.198,74.6511 214.5,68C 228.868,63.2149 243.534,62.2149 258.5,65C 261.178,65.672 263.511,66.8387 265.5,68.5 Z"/></g>
<g><path style="opacity:1" fill="#a2a2a2" d="M 356.5,131.5 C 358.885,134.223 360.885,137.223 362.5,140.5C 361.637,139.537 360.97,139.537 360.5,140.5C 363.284,152.34 364.117,164.34 363,176.5C 362.333,177.167 361.667,177.833 361,178.5C 352.878,176.379 344.712,174.379 336.5,172.5C 302.712,164.3 268.378,161.633 233.5,164.5C 262.447,161.512 291.447,162.345 320.5,167C 329.799,170.178 339.299,172.345 349,173.5C 351.411,173.771 353.911,173.438 356.5,172.5C 359.409,159.425 358.742,146.425 354.5,133.5C 354.747,132.287 355.414,131.62 356.5,131.5 Z"/></g>
<g><path style="opacity:1" fill="#ababab" d="M 172.5,171.5 C 177.696,170.861 182.696,169.861 187.5,168.5C 196.815,165.452 206.481,163.785 216.5,163.5C 244.79,161.488 273.123,160.988 301.5,162C 311.055,163.76 320.721,165.426 330.5,167C 335.167,167.667 339.833,167.667 344.5,167C 346.774,164.656 347.941,161.822 348,158.5C 348.111,147.497 348.111,136.497 348,125.5C 349.333,127.5 350.667,129.5 352,131.5C 352.417,130.244 353.25,129.577 354.5,129.5C 355.5,129.833 356.167,130.5 356.5,131.5C 355.414,131.62 354.747,132.287 354.5,133.5C 358.742,146.425 359.409,159.425 356.5,172.5C 353.911,173.438 351.411,173.771 349,173.5C 339.299,172.345 329.799,170.178 320.5,167C 291.447,162.345 262.447,161.512 233.5,164.5C 211.048,166.283 189.048,170.283 167.5,176.5C 160.482,177.837 153.482,179.337 146.5,181C 141.471,182.229 136.804,184.229 132.5,187C 128.181,187.905 123.848,188.238 119.5,188C 118.667,187.167 117.833,186.333 117,185.5C 116.058,173.162 116.891,160.995 119.5,149C 118.906,148.536 118.239,148.369 117.5,148.5C 125.382,135.27 133.715,122.27 142.5,109.5C 148.188,101.812 154.854,95.1456 162.5,89.5C 164.017,89.4894 165.184,88.8228 166,87.5C 166.718,88.4506 167.551,88.6172 168.5,88C 174.502,82.4944 181.502,79.4944 189.5,79C 186.378,80.6446 183.212,82.1446 180,83.5C 179.667,83.1667 179.333,82.8333 179,82.5C 175.167,85 171.333,87.5 167.5,90C 154.049,103.261 142.382,117.761 132.5,133.5C 133.716,134.096 135.049,134.263 136.5,134C 131.487,136.346 127.821,140.013 125.5,145C 127.163,154.063 127.997,163.229 128,172.5C 128.606,177.957 131.606,180.623 137,180.5C 149.35,178.938 161.183,175.938 172.5,171.5 Z"/></g>
<g><path style="opacity:0.997" fill="#969696" d="M 117.5,148.5 C 118.239,148.369 118.906,148.536 119.5,149C 116.891,160.995 116.058,173.162 117,185.5C 117.833,186.333 118.667,187.167 119.5,188C 123.848,188.238 128.181,187.905 132.5,187C 136.804,184.229 141.471,182.229 146.5,181C 153.482,179.337 160.482,177.837 167.5,176.5C 165.112,177.349 162.779,178.349 160.5,179.5C 149.955,181.183 139.955,184.349 130.5,189C 125.211,192.62 120.211,196.62 115.5,201C 113.782,201.346 112.115,201.846 110.5,202.5C 108.889,199.78 108.056,196.78 108,193.5C 107.501,198.489 107.334,203.489 107.5,208.5C 107.5,210.833 107.5,213.167 107.5,215.5C 105.463,195.752 106.629,176.085 111,156.5C 112.946,153.58 115.113,150.913 117.5,148.5 Z"/></g>
<g><path style="opacity:1" fill="#808080" d="M 336.5,172.5 C 337.167,173.167 337.833,173.833 338.5,174.5C 328.637,171.881 318.637,169.881 308.5,168.5C 283.589,165.668 258.589,164.835 233.5,166C 216.206,168.882 198.872,171.549 181.5,174C 174.498,175.947 167.498,177.781 160.5,179.5C 162.779,178.349 165.112,177.349 167.5,176.5C 189.048,170.283 211.048,166.283 233.5,164.5C 268.378,161.633 302.712,164.3 336.5,172.5 Z"/></g>
<g><path style="opacity:1" fill="#929292" d="M 362.5,140.5 C 364.741,143.718 366.241,147.384 367,151.5C 368.856,160.746 370.022,170.08 370.5,179.5C 368.661,189.187 364.661,190.021 358.5,182C 351.737,179.582 345.071,177.082 338.5,174.5C 337.833,173.833 337.167,173.167 336.5,172.5C 344.712,174.379 352.878,176.379 361,178.5C 361.667,177.833 362.333,177.167 363,176.5C 364.117,164.34 363.284,152.34 360.5,140.5C 360.97,139.537 361.637,139.537 362.5,140.5 Z"/></g>
<g><path style="opacity:1" fill="#6e6e6e" d="M 308.5,168.5 C 318.637,169.881 328.637,171.881 338.5,174.5C 345.071,177.082 351.737,179.582 358.5,182C 364.661,190.021 368.661,189.187 370.5,179.5C 371.661,187.562 371.161,195.562 369,203.5C 368.617,204.056 368.117,204.389 367.5,204.5C 366.225,195.043 361.225,188.21 352.5,184C 349.048,182.774 345.715,181.274 342.5,179.5C 341.614,178.675 341.281,177.675 341.5,176.5C 330.002,175.113 319.002,172.446 308.5,168.5 Z"/></g>
<g><path style="opacity:1" fill="#d2a485" d="M 317.5,185.5 C 310.364,185.526 305.031,188.526 301.5,194.5C 301.167,194.5 300.833,194.5 300.5,194.5C 291.835,197.749 286.002,203.749 283,212.5C 280.67,226.412 280.003,240.412 281,254.5C 282.419,256.879 283.586,259.379 284.5,262C 281.81,265.071 278.81,267.738 275.5,270C 276.498,273.214 278.498,275.381 281.5,276.5C 285.089,280.434 286.255,285.101 285,290.5C 283.681,292.487 281.848,293.654 279.5,294C 274.778,294.777 270.111,294.61 265.5,293.5C 264.989,288.874 264.822,284.207 265,279.5C 263.174,275.963 260.84,275.629 258,278.5C 253.246,283.959 251.58,290.292 253,297.5C 255.066,300.107 257.566,302.107 260.5,303.5C 260.842,304.338 261.508,304.672 262.5,304.5C 262.953,305.458 263.619,306.292 264.5,307C 257.654,307.821 250.987,307.654 244.5,306.5C 249.844,306.666 255.177,306.499 260.5,306C 257.408,305.146 254.741,303.646 252.5,301.5C 249.17,292.558 250.337,284.225 256,276.5C 256.956,275.421 257.789,274.255 258.5,273C 264.044,270.711 269.377,268.044 274.5,265C 276.066,263.316 277.066,261.316 277.5,259C 277.079,248.739 275.913,238.572 274,228.5C 268.406,217.779 263.406,218.112 259,229.5C 257.894,234.769 257.227,240.103 257,245.5C 255.604,252.586 251.437,255.753 244.5,255C 243.789,253.745 242.956,252.579 242,251.5C 239.959,252.423 237.792,252.756 235.5,252.5C 237.076,251.857 238.41,250.857 239.5,249.5C 240.873,249.657 242.207,249.49 243.5,249C 250.377,244.535 251.377,238.868 246.5,232C 245.234,231.691 244.067,231.191 243,230.5C 233.228,231.601 223.395,231.601 213.5,230.5C 209.5,230.5 205.5,230.5 201.5,230.5C 209.29,229.075 217.29,228.242 225.5,228C 233.131,226.401 240.464,223.901 247.5,220.5C 249.52,218.401 249.854,216.067 248.5,213.5C 242.827,211.052 237.827,207.718 233.5,203.5C 241.955,203.796 246.288,199.796 246.5,191.5C 247.131,193.448 248.131,195.281 249.5,197C 255.582,199.812 261.916,201.146 268.5,201C 278.212,195.456 286.546,188.289 293.5,179.5C 292.092,178.757 290.759,177.923 289.5,177C 275.095,174.247 260.595,173.747 246,175.5C 238.175,177.819 230.008,179.319 221.5,180C 224.797,180.204 227.797,181.037 230.5,182.5C 214.491,178.163 199.491,180.329 185.5,189C 180.318,192.662 176.984,197.495 175.5,203.5C 178.237,203.599 180.904,203.265 183.5,202.5C 181.82,204.527 180.653,206.861 180,209.5C 179.13,215.917 179.464,222.251 181,228.5C 181.465,229.931 182.299,231.097 183.5,232C 187.51,232.357 191.51,232.19 195.5,231.5C 189.079,232.71 183.412,235.544 178.5,240C 178.728,240.399 179.062,240.565 179.5,240.5C 179.5,240.833 179.5,241.167 179.5,241.5C 178.833,241.5 178.167,241.5 177.5,241.5C 176.399,240.402 175.066,240.235 173.5,241C 172.941,241.725 172.608,242.558 172.5,243.5C 174.315,247.13 176.149,250.797 178,254.5C 178.568,263.383 178.068,272.216 176.5,281C 178.206,295.913 184.54,308.413 195.5,318.5C 193.901,318.768 192.568,318.434 191.5,317.5C 187.586,314.09 183.753,310.423 180,306.5C 171.964,292.317 168.797,277.15 170.5,261C 170.396,254.937 169.729,248.937 168.5,243C 169.975,223.986 172.641,205.152 176.5,186.5C 177.739,186.058 178.739,185.391 179.5,184.5C 182.902,182.528 186.569,181.028 190.5,180C 202.878,178.604 215.212,176.771 227.5,174.5C 239.705,173.726 251.871,172.726 264,171.5C 279.556,172.954 295.056,174.788 310.5,177C 314.673,180.085 319.34,182.085 324.5,183C 322.167,184.043 319.834,184.876 317.5,185.5 Z"/></g>
<g><path style="opacity:1" fill="#7e7e7e" d="M 160.5,179.5 C 150.329,182.892 140.329,186.725 130.5,191C 122.673,196.666 115.006,202.499 107.5,208.5C 107.334,203.489 107.501,198.489 108,193.5C 108.056,196.78 108.889,199.78 110.5,202.5C 112.115,201.846 113.782,201.346 115.5,201C 120.211,196.62 125.211,192.62 130.5,189C 139.955,184.349 149.955,181.183 160.5,179.5 Z"/></g>
<g><path style="opacity:1" fill="#bb8b69" d="M 162.5,189.5 C 160.155,191.566 159.989,193.9 162,196.5C 162.167,204.167 162.333,211.833 162.5,219.5C 161.973,237.18 161.473,254.847 161,272.5C 164.282,285.18 168.449,297.514 173.5,309.5C 168.473,306.473 164.473,302.473 161.5,297.5C 157.773,289.271 155.273,280.605 154,271.5C 152.89,256.857 152.223,242.19 152,227.5C 150.137,217.525 148.804,207.525 148,197.5C 148.498,199.544 149.665,200.878 151.5,201.5C 152.712,202.23 153.712,203.23 154.5,204.5C 155.484,201.572 155.817,198.572 155.5,195.5C 155.935,191.438 158.269,189.438 162.5,189.5 Z"/></g>
<g><path style="opacity:1" fill="#ca9a79" d="M 300.5,194.5 C 300.435,196.696 299.768,198.696 298.5,200.5C 294.19,202.976 290.69,206.31 288,210.5C 282.134,225.912 281.134,241.579 285,257.5C 286.808,259.396 288.975,259.896 291.5,259C 292.435,256.619 292.768,254.119 292.5,251.5C 294.028,252.802 295.028,254.469 295.5,256.5C 297.987,271.349 299.487,286.349 300,301.5C 300.309,302.766 300.809,303.933 301.5,305C 303.382,305.198 305.048,305.698 306.5,306.5C 301.167,306.5 295.833,306.5 290.5,306.5C 292.441,305.326 293.941,303.659 295,301.5C 297.443,292.26 296.776,283.26 293,274.5C 290.926,272.548 288.759,270.715 286.5,269C 280.773,268.634 279.106,271.134 281.5,276.5C 278.498,275.381 276.498,273.214 275.5,270C 278.81,267.738 281.81,265.071 284.5,262C 283.586,259.379 282.419,256.879 281,254.5C 280.003,240.412 280.67,226.412 283,212.5C 286.002,203.749 291.835,197.749 300.5,194.5 Z"/></g>
<g><path style="opacity:1" fill="#d9ac8f" d="M 233.5,203.5 C 237.827,207.718 242.827,211.052 248.5,213.5C 249.854,216.067 249.52,218.401 247.5,220.5C 240.464,223.901 233.131,226.401 225.5,228C 217.29,228.242 209.29,229.075 201.5,230.5C 199.735,231.461 197.735,231.795 195.5,231.5C 191.51,232.19 187.51,232.357 183.5,232C 182.299,231.097 181.465,229.931 181,228.5C 179.464,222.251 179.13,215.917 180,209.5C 180.653,206.861 181.82,204.527 183.5,202.5C 188.822,197.683 195.155,195.35 202.5,195.5C 206.889,195.545 211.223,196.045 215.5,197C 221.659,198.922 227.659,201.088 233.5,203.5 Z"/></g>
<g><path style="opacity:1" fill="#636262" d="M 308.5,168.5 C 319.002,172.446 330.002,175.113 341.5,176.5C 341.281,177.675 341.614,178.675 342.5,179.5C 345.715,181.274 349.048,182.774 352.5,184C 361.225,188.21 366.225,195.043 367.5,204.5C 366.754,208.323 364.754,211.323 361.5,213.5C 361.666,208.821 361.499,204.155 361,199.5C 358.587,196.938 356.92,193.938 356,190.5C 354.143,187.8 351.643,186.134 348.5,185.5C 343.075,180.792 336.742,177.792 329.5,176.5C 327.565,175.85 325.565,175.517 323.5,175.5C 315.473,172.859 307.14,171.025 298.5,170C 249.202,164.035 201.202,169.202 154.5,185.5C 141.51,190.077 130.01,197.077 120,206.5C 118.509,213.409 117.676,220.409 117.5,227.5C 116.391,227.443 115.391,227.11 114.5,226.5C 110.909,223.655 108.576,219.988 107.5,215.5C 107.5,213.167 107.5,210.833 107.5,208.5C 115.006,202.499 122.673,196.666 130.5,191C 140.329,186.725 150.329,182.892 160.5,179.5C 167.498,177.781 174.498,175.947 181.5,174C 198.872,171.549 216.206,168.882 233.5,166C 258.589,164.835 283.589,165.668 308.5,168.5 Z"/></g>
<g><path style="opacity:1" fill="#3c3129" d="M 323.5,175.5 C 325.565,175.517 327.565,175.85 329.5,176.5C 329.183,179.572 329.516,182.572 330.5,185.5C 340.643,188.46 346.643,195.127 348.5,205.5C 348.36,207.03 347.693,208.03 346.5,208.5C 340.951,200.283 333.617,197.95 324.5,201.5C 320.307,201.953 316.307,203.119 312.5,205C 304.438,206.105 300.772,202.605 301.5,194.5C 305.031,188.526 310.364,185.526 317.5,185.5C 320.5,185.5 323.5,185.5 326.5,185.5C 326.371,183.784 326.038,182.117 325.5,180.5C 325.107,178.716 324.441,177.05 323.5,175.5 Z"/></g>
<g><path style="opacity:1" fill="#473b33" d="M 230.5,182.5 C 237.202,183.271 242.535,186.271 246.5,191.5C 246.288,199.796 241.955,203.796 233.5,203.5C 227.659,201.088 221.659,198.922 215.5,197C 211.223,196.045 206.889,195.545 202.5,195.5C 195.155,195.35 188.822,197.683 183.5,202.5C 180.904,203.265 178.237,203.599 175.5,203.5C 176.984,197.495 180.318,192.662 185.5,189C 199.491,180.329 214.491,178.163 230.5,182.5 Z"/></g>
<g><path style="opacity:1" fill="#deb397" d="M 246.5,191.5 C 242.535,186.271 237.202,183.271 230.5,182.5C 227.797,181.037 224.797,180.204 221.5,180C 230.008,179.319 238.175,177.819 246,175.5C 260.595,173.747 275.095,174.247 289.5,177C 290.759,177.923 292.092,178.757 293.5,179.5C 286.546,188.289 278.212,195.456 268.5,201C 261.916,201.146 255.582,199.812 249.5,197C 248.131,195.281 247.131,193.448 246.5,191.5 Z"/></g>
<g><path style="opacity:1" fill="#b98e71" d="M 325.5,180.5 C 326.038,182.117 326.371,183.784 326.5,185.5C 323.5,185.5 320.5,185.5 317.5,185.5C 319.834,184.876 322.167,184.043 324.5,183C 319.34,182.085 314.673,180.085 310.5,177C 295.056,174.788 279.556,172.954 264,171.5C 251.871,172.726 239.705,173.726 227.5,174.5C 215.212,176.771 202.878,178.604 190.5,180C 186.569,181.028 182.902,182.528 179.5,184.5C 177.194,184.993 174.861,185.326 172.5,185.5C 173.429,184.685 174.429,183.852 175.5,183C 181.017,181.907 186.35,180.241 191.5,178C 200.172,177.443 208.506,175.443 216.5,172C 227.215,171.875 237.882,171.208 248.5,170C 258.833,169.333 269.167,169.333 279.5,170C 290.743,172.524 302.076,174.524 313.5,176C 317.405,177.807 321.405,179.307 325.5,180.5 Z"/></g>
<g><path style="opacity:1" fill="#a2785b" d="M 323.5,175.5 C 324.441,177.05 325.107,178.716 325.5,180.5C 321.405,179.307 317.405,177.807 313.5,176C 302.076,174.524 290.743,172.524 279.5,170C 269.167,169.333 258.833,169.333 248.5,170C 237.882,171.208 227.215,171.875 216.5,172C 208.506,175.443 200.172,177.443 191.5,178C 186.35,180.241 181.017,181.907 175.5,183C 174.429,183.852 173.429,184.685 172.5,185.5C 168.723,185.934 165.39,187.267 162.5,189.5C 158.269,189.438 155.935,191.438 155.5,195.5C 154.521,192.375 154.187,189.042 154.5,185.5C 201.202,169.202 249.202,164.035 298.5,170C 307.14,171.025 315.473,172.859 323.5,175.5 Z"/></g>
<g><path style="opacity:1" fill="#bd8e6e" d="M 300.5,194.5 C 300.833,194.5 301.167,194.5 301.5,194.5C 300.772,202.605 304.438,206.105 312.5,205C 316.307,203.119 320.307,201.953 324.5,201.5C 328.658,199.872 332.658,200.205 336.5,202.5C 342.553,212.43 344.22,223.096 341.5,234.5C 340.5,234.5 339.5,234.5 338.5,234.5C 328.941,232.68 319.608,233.347 310.5,236.5C 307.278,236.85 304.112,237.517 301,238.5C 288.047,233.447 283.047,237.781 286,251.5C 288.369,255.474 290.536,255.474 292.5,251.5C 292.768,254.119 292.435,256.619 291.5,259C 288.975,259.896 286.808,259.396 285,257.5C 281.134,241.579 282.134,225.912 288,210.5C 290.69,206.31 294.19,202.976 298.5,200.5C 299.768,198.696 300.435,196.696 300.5,194.5 Z"/></g>
<g><path style="opacity:1" fill="#e3b89d" d="M 204.5,200.5 C 216.618,200.692 226.785,205.026 235,213.5C 233.75,218.432 230.583,221.932 225.5,224C 214.854,226.139 204.187,227.806 193.5,229C 192.107,227.829 191.273,226.329 191,224.5C 188.525,215.714 190.691,208.548 197.5,203C 200.104,202.61 202.438,201.776 204.5,200.5 Z"/></g>
<g><path style="opacity:1" fill="#aa7c5b" d="M 151.5,201.5 C 149.665,200.878 148.498,199.544 148,197.5C 148.804,207.525 150.137,217.525 152,227.5C 152.223,242.19 152.89,256.857 154,271.5C 155.273,280.605 157.773,289.271 161.5,297.5C 150.616,285.404 143.116,271.404 139,255.5C 138.077,251.21 137.577,246.877 137.5,242.5C 139.33,234.504 140.997,226.504 142.5,218.5C 142.24,210.213 143.573,202.213 146.5,194.5C 147.274,193.289 148.107,193.289 149,194.5C 150.118,196.765 150.951,199.099 151.5,201.5 Z"/></g>
<g><path style="opacity:1" fill="#cd9f7e" d="M 313.5,205.5 C 328.532,202.06 336.532,207.893 337.5,223C 337.687,226.441 336.687,229.441 334.5,232C 323.448,232.402 312.448,232.735 301.5,233C 297.508,230.008 293.842,226.674 290.5,223C 291.669,220.993 292.335,218.827 292.5,216.5C 299.37,212.565 306.37,208.898 313.5,205.5 Z"/></g>
<g><path style="opacity:1" fill="#aa7c5b" d="M 346.5,208.5 C 348.153,209.799 349.653,209.466 351,207.5C 351.667,233.833 351.667,260.167 351,286.5C 350.863,293.957 349.863,301.291 348,308.5C 347.667,308.167 347.333,307.833 347,307.5C 346.451,309.76 345.284,311.426 343.5,312.5C 345.648,306.674 347.481,300.674 349,294.5C 349.532,284.327 349.365,274.16 348.5,264C 349.02,257.138 349.687,250.304 350.5,243.5C 349.5,243.5 348.5,243.5 347.5,243.5C 347.455,238.788 345.122,236.455 340.5,236.5C 339.167,236.5 338.5,235.833 338.5,234.5C 339.5,234.5 340.5,234.5 341.5,234.5C 344.22,223.096 342.553,212.43 336.5,202.5C 332.658,200.205 328.658,199.872 324.5,201.5C 333.617,197.95 340.951,200.283 346.5,208.5 Z"/></g>
<g><path style="opacity:1" fill="#775136" d="M 355.5,285.5 C 354.932,289.601 353.932,293.601 352.5,297.5C 354.344,267.543 355.011,237.543 354.5,207.5C 355.499,232.759 355.833,258.759 355.5,285.5 Z"/></g>
<g><path style="opacity:1" fill="#d0a181" d="M 114.5,226.5 C 115.391,227.11 116.391,227.443 117.5,227.5C 118.167,228.833 119.167,229.833 120.5,230.5C 122.315,237.034 122.815,243.7 122,250.5C 121.074,248.308 119.907,246.308 118.5,244.5C 116.563,240.894 113.897,237.894 110.5,235.5C 109.311,234.571 107.978,234.238 106.5,234.5C 106.768,232.901 106.434,231.568 105.5,230.5C 107.425,226.992 110.425,225.659 114.5,226.5 Z"/></g>
<g><path style="opacity:1" fill="#c08e68" d="M 101.5,239.5 C 101.343,240.873 101.51,242.207 102,243.5C 102.414,243.043 102.914,242.709 103.5,242.5C 108.829,245.09 113.329,248.757 117,253.5C 121.074,263.602 123.907,273.936 125.5,284.5C 119.098,277.138 115.932,268.471 116,258.5C 114.853,256.269 113.853,253.935 113,251.5C 109.662,249.436 106.495,247.103 103.5,244.5C 102.292,252.185 102.459,259.852 104,267.5C 106.597,276.579 110.097,285.245 114.5,293.5C 115.925,294.922 116.925,296.589 117.5,298.5C 114.877,297.046 112.711,295.046 111,292.5C 102.85,275.591 99.6834,257.925 101.5,239.5 Z"/></g>
<g><path style="opacity:1" fill="#c99a78" d="M 179.5,184.5 C 178.739,185.391 177.739,186.058 176.5,186.5C 172.641,205.152 169.975,223.986 168.5,243C 169.729,248.937 170.396,254.937 170.5,261C 168.797,277.15 171.964,292.317 180,306.5C 183.753,310.423 187.586,314.09 191.5,317.5C 184.869,316.189 178.869,313.523 173.5,309.5C 168.449,297.514 164.282,285.18 161,272.5C 161.473,254.847 161.973,237.18 162.5,219.5C 162.333,211.833 162.167,204.167 162,196.5C 159.989,193.9 160.155,191.566 162.5,189.5C 165.39,187.267 168.723,185.934 172.5,185.5C 174.861,185.326 177.194,184.993 179.5,184.5 Z"/></g>
<g><path style="opacity:1" fill="#a97a59" d="M 105.5,230.5 C 106.434,231.568 106.768,232.901 106.5,234.5C 107.978,234.238 109.311,234.571 110.5,235.5C 113.897,237.894 116.563,240.894 118.5,244.5C 116.704,243.207 115.037,241.707 113.5,240C 112.207,239.51 110.873,239.343 109.5,239.5C 109.351,240.552 109.517,241.552 110,242.5C 118.002,249.056 122.502,257.389 123.5,267.5C 124.542,268.791 125.708,268.791 127,267.5C 128.022,278.215 130.188,288.548 133.5,298.5C 133.672,299.492 133.338,300.158 132.5,300.5C 127.5,299.833 122.5,299.167 117.5,298.5C 116.925,296.589 115.925,294.922 114.5,293.5C 126.174,299.943 129.841,296.943 125.5,284.5C 123.907,273.936 121.074,263.602 117,253.5C 113.329,248.757 108.829,245.09 103.5,242.5C 102.914,242.709 102.414,243.043 102,243.5C 101.51,242.207 101.343,240.873 101.5,239.5C 101.692,235.898 103.026,232.898 105.5,230.5 Z"/></g>
<g><path style="opacity:1" fill="#1e1a17" d="M 154.5,185.5 C 154.187,189.042 154.521,192.375 155.5,195.5C 155.817,198.572 155.484,201.572 154.5,204.5C 153.712,203.23 152.712,202.23 151.5,201.5C 150.951,199.099 150.118,196.765 149,194.5C 148.107,193.289 147.274,193.289 146.5,194.5C 143.573,202.213 142.24,210.213 142.5,218.5C 141.069,218.881 140.236,219.881 140,221.5C 139.667,221.167 139.333,220.833 139,220.5C 137.058,236.565 132.725,251.898 126,266.5C 125.329,267.252 124.496,267.586 123.5,267.5C 123.667,253.829 123.5,240.163 123,226.5C 122.066,227.858 121.232,229.192 120.5,230.5C 119.167,229.833 118.167,228.833 117.5,227.5C 117.676,220.409 118.509,213.409 120,206.5C 130.01,197.077 141.51,190.077 154.5,185.5 Z"/></g>
<g><path style="opacity:1" fill="#8d6446" d="M 123.5,267.5 C 122.502,257.389 118.002,249.056 110,242.5C 109.517,241.552 109.351,240.552 109.5,239.5C 110.873,239.343 112.207,239.51 113.5,240C 115.037,241.707 116.704,243.207 118.5,244.5C 119.907,246.308 121.074,248.308 122,250.5C 122.815,243.7 122.315,237.034 120.5,230.5C 121.232,229.192 122.066,227.858 123,226.5C 123.5,240.163 123.667,253.829 123.5,267.5 Z"/></g>
<g><path style="opacity:1" fill="#9d7050" d="M 329.5,176.5 C 336.742,177.792 343.075,180.792 348.5,185.5C 348.789,191.568 349.622,197.568 351,203.5C 351.416,205.55 352.583,206.884 354.5,207.5C 355.011,237.543 354.344,267.543 352.5,297.5C 352.5,299.167 352.5,300.833 352.5,302.5C 350.963,305.9 349.13,309.233 347,312.5C 346.184,313.823 345.017,314.489 343.5,314.5C 343.5,313.833 343.5,313.167 343.5,312.5C 345.284,311.426 346.451,309.76 347,307.5C 347.333,307.833 347.667,308.167 348,308.5C 349.863,301.291 350.863,293.957 351,286.5C 351.667,260.167 351.667,233.833 351,207.5C 349.653,209.466 348.153,209.799 346.5,208.5C 347.693,208.03 348.36,207.03 348.5,205.5C 346.643,195.127 340.643,188.46 330.5,185.5C 329.516,182.572 329.183,179.572 329.5,176.5 Z"/></g>
<g><path style="opacity:1" fill="#ce9f7e" d="M 125.5,284.5 C 129.841,296.943 126.174,299.943 114.5,293.5C 110.097,285.245 106.597,276.579 104,267.5C 102.459,259.852 102.292,252.185 103.5,244.5C 106.495,247.103 109.662,249.436 113,251.5C 113.853,253.935 114.853,256.269 116,258.5C 115.932,268.471 119.098,277.138 125.5,284.5 Z"/></g>
<g><path style="opacity:1" fill="#191613" d="M 348.5,185.5 C 351.643,186.134 354.143,187.8 356,190.5C 356.92,193.938 358.587,196.938 361,199.5C 361.499,204.155 361.666,208.821 361.5,213.5C 362.031,218.72 362.697,223.887 363.5,229C 362.524,238.431 361.69,247.931 361,257.5C 360.313,263.031 358.98,268.364 357,273.5C 356.808,285.532 356.142,297.532 355,309.5C 354.262,312.501 353.096,315.168 351.5,317.5C 347.595,324.591 343.428,331.591 339,338.5C 333.333,344.833 327.667,351.167 322,357.5C 315.452,363.051 309.285,368.885 303.5,375C 282.474,384.396 260.808,386.396 238.5,381C 229.358,377.247 220.025,373.914 210.5,371C 192.527,360.091 175.694,347.591 160,333.5C 150.35,322.197 141.684,310.197 134,297.5C 133.601,297.728 133.435,298.062 133.5,298.5C 130.188,288.548 128.022,278.215 127,267.5C 125.708,268.791 124.542,268.791 123.5,267.5C 124.496,267.586 125.329,267.252 126,266.5C 132.725,251.898 137.058,236.565 139,220.5C 139.333,220.833 139.667,221.167 140,221.5C 140.236,219.881 141.069,218.881 142.5,218.5C 140.997,226.504 139.33,234.504 137.5,242.5C 136.593,244.657 135.927,246.99 135.5,249.5C 134.163,251.349 133.497,253.516 133.5,256C 137.335,275.835 145.835,293.335 159,308.5C 170.53,319.696 181.697,331.196 192.5,343C 203.091,350.92 213.091,359.586 222.5,369C 230.911,374.774 240.244,378.107 250.5,379C 288.435,382.953 315.601,367.786 332,333.5C 337.681,327.652 343.515,321.985 349.5,316.5C 353.539,306.636 355.539,296.303 355.5,285.5C 355.833,258.759 355.499,232.759 354.5,207.5C 352.583,206.884 351.416,205.55 351,203.5C 349.622,197.568 348.789,191.568 348.5,185.5 Z"/></g>
<g><path style="opacity:1" fill="#24201d" d="M 135.5,249.5 C 139.658,279.029 153.991,302.195 178.5,319C 180.743,320.136 183.076,320.97 185.5,321.5C 185.414,322.496 185.748,323.329 186.5,324C 202.418,330.583 214.585,341.416 223,356.5C 238.295,370.837 255.795,375.004 275.5,369C 278.672,367.248 281.672,365.248 284.5,363C 289.723,362.98 294.723,361.98 299.5,360C 307.804,355.138 314.304,348.638 319,340.5C 325.963,333.89 332.463,326.89 338.5,319.5C 346.774,316.886 351.441,311.219 352.5,302.5C 352.5,300.833 352.5,299.167 352.5,297.5C 353.932,293.601 354.932,289.601 355.5,285.5C 355.539,296.303 353.539,306.636 349.5,316.5C 343.515,321.985 337.681,327.652 332,333.5C 315.601,367.786 288.435,382.953 250.5,379C 240.244,378.107 230.911,374.774 222.5,369C 213.091,359.586 203.091,350.92 192.5,343C 181.697,331.196 170.53,319.696 159,308.5C 145.835,293.335 137.335,275.835 133.5,256C 133.497,253.516 134.163,251.349 135.5,249.5 Z"/></g>
<g><path style="opacity:1" fill="#3f3b38" d="M 352.5,302.5 C 351.441,311.219 346.774,316.886 338.5,319.5C 326.515,323.986 318.348,332.32 314,344.5C 309.316,349.881 303.649,353.548 297,355.5C 294.992,355.693 293.492,355.026 292.5,353.5C 304.479,351.858 312.145,345.192 315.5,333.5C 318.477,327.525 322.81,322.858 328.5,319.5C 329.167,319.5 329.833,319.5 330.5,319.5C 335.368,318.881 339.702,317.215 343.5,314.5C 345.017,314.489 346.184,313.823 347,312.5C 349.13,309.233 350.963,305.9 352.5,302.5 Z"/></g>
<g><path style="opacity:1" fill="#b69076" d="M 290.5,306.5 C 295.833,306.5 301.167,306.5 306.5,306.5C 313.331,307.915 319.331,310.915 324.5,315.5C 325.527,317.194 326.861,318.527 328.5,319.5C 322.81,322.858 318.477,327.525 315.5,333.5C 316.475,327.916 315.142,323.083 311.5,319C 306.178,318.316 300.844,317.816 295.5,317.5C 294.081,316.549 292.415,316.216 290.5,316.5C 290.714,314.856 290.38,313.356 289.5,312C 283.167,311 276.833,310 270.5,309C 269.944,308.617 269.611,308.117 269.5,307.5C 275.509,307.666 281.509,307.499 287.5,307C 288.352,305.272 289.352,305.105 290.5,306.5 Z"/></g>
<g><path style="opacity:1" fill="#c29d85" d="M 262.5,304.5 C 263.167,304.5 263.833,304.5 264.5,304.5C 266.072,305.687 267.739,306.687 269.5,307.5C 269.611,308.117 269.944,308.617 270.5,309C 276.833,310 283.167,311 289.5,312C 290.38,313.356 290.714,314.856 290.5,316.5C 292.415,316.216 294.081,316.549 295.5,317.5C 293.833,317.5 292.167,317.5 290.5,317.5C 285.034,317.867 279.701,318.867 274.5,320.5C 268.152,318.692 261.652,317.692 255,317.5C 246.836,318.039 238.669,318.539 230.5,319C 223.61,321.258 220.61,326.091 221.5,333.5C 217.839,325.173 211.505,320.506 202.5,319.5C 204.735,319.795 206.735,319.461 208.5,318.5C 215.157,314.169 222.157,310.336 229.5,307C 234.489,306.501 239.489,306.334 244.5,306.5C 250.987,307.654 257.654,307.821 264.5,307C 263.619,306.292 262.953,305.458 262.5,304.5 Z"/></g>
<g><path style="opacity:1" fill="#825636" d="M 293.5,296.5 C 291.019,302.085 286.686,305.252 280.5,306C 275.019,306.752 269.685,306.252 264.5,304.5C 264.179,302.952 263.179,302.285 261.5,302.5C 261.5,301.5 261.5,300.5 261.5,299.5C 268.841,299.666 276.174,299.5 283.5,299C 287.403,298.544 290.403,296.71 292.5,293.5C 293.386,294.325 293.719,295.325 293.5,296.5 Z"/></g>
<g><path style="opacity:1" fill="#9a6c4c" d="M 293.5,296.5 C 293.719,295.325 293.386,294.325 292.5,293.5C 290.403,296.71 287.403,298.544 283.5,299C 276.174,299.5 268.841,299.666 261.5,299.5C 261.5,300.5 261.5,301.5 261.5,302.5C 263.179,302.285 264.179,302.952 264.5,304.5C 263.833,304.5 263.167,304.5 262.5,304.5C 261.508,304.672 260.842,304.338 260.5,303.5C 258.919,301.858 258.253,299.858 258.5,297.5C 268.277,298.824 277.943,298.324 287.5,296C 289.594,294.745 290.594,292.912 290.5,290.5C 289.028,286.598 288.528,282.598 289,278.5C 290,279.5 291,280.5 292,281.5C 292.836,285.339 293.669,289.172 294.5,293C 294.486,294.385 294.152,295.551 293.5,296.5 Z"/></g>
<g><path style="opacity:1" fill="#bb8c6b" d="M 290.5,306.5 C 289.352,305.105 288.352,305.272 287.5,307C 281.509,307.499 275.509,307.666 269.5,307.5C 267.739,306.687 266.072,305.687 264.5,304.5C 269.685,306.252 275.019,306.752 280.5,306C 286.686,305.252 291.019,302.085 293.5,296.5C 294.152,295.551 294.486,294.385 294.5,293C 293.669,289.172 292.836,285.339 292,281.5C 291,280.5 290,279.5 289,278.5C 288.528,282.598 289.028,286.598 290.5,290.5C 290.594,292.912 289.594,294.745 287.5,296C 277.943,298.324 268.277,298.824 258.5,297.5C 258.253,299.858 258.919,301.858 260.5,303.5C 257.566,302.107 255.066,300.107 253,297.5C 251.58,290.292 253.246,283.959 258,278.5C 260.84,275.629 263.174,275.963 265,279.5C 264.822,284.207 264.989,288.874 265.5,293.5C 270.111,294.61 274.778,294.777 279.5,294C 281.848,293.654 283.681,292.487 285,290.5C 286.255,285.101 285.089,280.434 281.5,276.5C 279.106,271.134 280.773,268.634 286.5,269C 288.759,270.715 290.926,272.548 293,274.5C 296.776,283.26 297.443,292.26 295,301.5C 293.941,303.659 292.441,305.326 290.5,306.5 Z"/></g>
<g><path style="opacity:1" fill="#bb8b69" d="M 344.5,243.5 C 345.652,244.625 346.652,244.625 347.5,243.5C 348.5,243.5 349.5,243.5 350.5,243.5C 349.687,250.304 349.02,257.138 348.5,264C 349.365,274.16 349.532,284.327 349,294.5C 347.481,300.674 345.648,306.674 343.5,312.5C 343.5,313.167 343.5,313.833 343.5,314.5C 339.702,317.215 335.368,318.881 330.5,319.5C 340.333,305.32 344,289.487 341.5,272C 341.145,263.784 342.145,255.784 344.5,248C 344.272,247.601 343.938,247.435 343.5,247.5C 344.234,246.292 344.567,244.959 344.5,243.5 Z"/></g>
<g><path style="opacity:1" fill="#d7a989" d="M 339.5,251.5 C 339.938,251.435 340.272,251.601 340.5,252C 338.613,255.659 337.113,259.492 336,263.5C 335.734,275.562 334.734,287.562 333,299.5C 330.92,305.332 328.087,310.665 324.5,315.5C 319.331,310.915 313.331,307.915 306.5,306.5C 305.048,305.698 303.382,305.198 301.5,305C 300.809,303.933 300.309,302.766 300,301.5C 299.487,286.349 297.987,271.349 295.5,256.5C 296.376,256.369 297.043,256.702 297.5,257.5C 300.667,263.833 303.833,270.167 307,276.5C 306.899,283.379 307.899,290.046 310,296.5C 314.473,300.802 318.473,300.469 322,295.5C 323.386,289.284 325.386,283.284 328,277.5C 327.253,269.433 329.086,262.1 333.5,255.5C 333.137,254.817 332.804,254.15 332.5,253.5C 334.921,253.122 337.254,252.455 339.5,251.5 Z"/></g>
<g><path style="opacity:1" fill="#cd9d7c" d="M 343.5,247.5 C 343.938,247.435 344.272,247.601 344.5,248C 342.145,255.784 341.145,263.784 341.5,272C 344,289.487 340.333,305.32 330.5,319.5C 329.833,319.5 329.167,319.5 328.5,319.5C 326.861,318.527 325.527,317.194 324.5,315.5C 328.087,310.665 330.92,305.332 333,299.5C 334.734,287.562 335.734,275.562 336,263.5C 337.113,259.492 338.613,255.659 340.5,252C 340.272,251.601 339.938,251.435 339.5,251.5C 340.5,249.833 341.833,248.5 343.5,247.5 Z"/></g>
<g><path style="opacity:1" fill="#dfb295" d="M 295.5,247.5 C 296.205,251.875 298.871,254.208 303.5,254.5C 309.471,255.241 315.471,255.575 321.5,255.5C 324.829,255.785 327.829,255.118 330.5,253.5C 331.167,253.5 331.833,253.5 332.5,253.5C 332.804,254.15 333.137,254.817 333.5,255.5C 329.086,262.1 327.253,269.433 328,277.5C 325.386,283.284 323.386,289.284 322,295.5C 318.473,300.469 314.473,300.802 310,296.5C 307.899,290.046 306.899,283.379 307,276.5C 303.833,270.167 300.667,263.833 297.5,257.5C 297.043,256.702 296.376,256.369 295.5,256.5C 295.028,254.469 294.028,252.802 292.5,251.5C 292.088,249.027 293.088,247.694 295.5,247.5 Z"/></g>
<g><path style="opacity:1" fill="#e8bea3" d="M 252.5,301.5 C 254.741,303.646 257.408,305.146 260.5,306C 255.177,306.499 249.844,306.666 244.5,306.5C 239.489,306.334 234.489,306.501 229.5,307C 222.157,310.336 215.157,314.169 208.5,318.5C 193.143,311.462 184.81,299.462 183.5,282.5C 184.476,273.512 184.642,264.512 184,255.5C 183.152,252.44 182.152,249.44 181,246.5C 179.054,245.253 177.22,243.92 175.5,242.5C 175.957,241.702 176.624,241.369 177.5,241.5C 178.167,241.5 178.833,241.5 179.5,241.5C 182.179,243.601 185.012,245.601 188,247.5C 188.186,244.964 188.686,242.631 189.5,240.5C 189.5,243.167 189.5,245.833 189.5,248.5C 191.921,248.878 194.254,249.545 196.5,250.5C 197.347,251.966 198.68,252.8 200.5,253C 212.86,254.612 225.193,256.279 237.5,258C 241.288,259.978 245.121,261.811 249,263.5C 257.291,256.927 261.957,248.26 263,237.5C 266.231,232.543 269.231,232.876 272,238.5C 273.275,246.447 273.775,254.447 273.5,262.5C 266.371,262.787 259.371,263.787 252.5,265.5C 251.757,266.908 250.923,268.241 250,269.5C 248.922,278.71 248.589,288.043 249,297.5C 249.057,299.91 250.224,301.244 252.5,301.5 Z"/></g>
<g><path style="opacity:1" fill="#816e56" d="M 226.5,253.5 C 222.5,254.833 218.5,254.833 214.5,253.5C 215.959,253.567 217.292,253.234 218.5,252.5C 220.053,250.615 222.053,249.615 224.5,249.5C 224.157,251.483 224.824,252.817 226.5,253.5 Z"/></g>
<g><path style="opacity:1" fill="#daac8e" d="M 177.5,241.5 C 176.624,241.369 175.957,241.702 175.5,242.5C 177.22,243.92 179.054,245.253 181,246.5C 182.152,249.44 183.152,252.44 184,255.5C 184.642,264.512 184.476,273.512 183.5,282.5C 184.81,299.462 193.143,311.462 208.5,318.5C 206.735,319.461 204.735,319.795 202.5,319.5C 199.941,319.802 197.607,319.468 195.5,318.5C 184.54,308.413 178.206,295.913 176.5,281C 178.068,272.216 178.568,263.383 178,254.5C 176.149,250.797 174.315,247.13 172.5,243.5C 172.608,242.558 172.941,241.725 173.5,241C 175.066,240.235 176.399,240.402 177.5,241.5 Z"/></g>
<g><path style="opacity:1" fill="#3c2e19" d="M 302.5,241.5 C 302.842,242.338 303.508,242.672 304.5,242.5C 304.5,242.833 304.5,243.167 304.5,243.5C 302.278,243.559 301.278,244.725 301.5,247C 302.322,249.472 302.989,251.972 303.5,254.5C 298.871,254.208 296.205,251.875 295.5,247.5C 297.173,244.833 299.507,242.833 302.5,241.5 Z"/></g>
<g><path style="opacity:1" fill="#e1e0df" d="M 231.5,240.5 C 233.86,242.853 236.527,244.853 239.5,246.5C 239.5,247.5 239.5,248.5 239.5,249.5C 238.41,250.857 237.076,251.857 235.5,252.5C 232.518,252.963 229.518,253.296 226.5,253.5C 228.183,249.364 228.85,245.031 228.5,240.5C 229.5,240.5 230.5,240.5 231.5,240.5 Z"/></g>
<g><path style="opacity:1" fill="#654733" d="M 340.5,236.5 C 345.122,236.455 347.455,238.788 347.5,243.5C 346.652,244.625 345.652,244.625 344.5,243.5C 343.167,242.833 342.167,241.833 341.5,240.5C 343.017,240.511 344.184,241.177 345,242.5C 345.167,242.167 345.333,241.833 345.5,241.5C 343.606,240.055 341.94,238.388 340.5,236.5 Z"/></g>
<g><path style="opacity:1" fill="#514531" d="M 334.5,237.5 C 333.022,237.238 331.689,237.571 330.5,238.5C 332.985,243.467 332.985,248.467 330.5,253.5C 327.829,255.118 324.829,255.785 321.5,255.5C 324.298,250.884 325.132,245.884 324,240.5C 323.632,239.09 322.799,238.09 321.5,237.5C 319.568,238.52 317.568,238.687 315.5,238C 321.929,236.281 328.263,236.114 334.5,237.5 Z"/></g>
<g><path style="opacity:1" fill="#7b7775" d="M 304.5,243.5 C 304.5,243.167 304.5,242.833 304.5,242.5C 305.799,240.901 307.465,240.401 309.5,241C 308.347,242.883 306.681,243.716 304.5,243.5 Z"/></g>
<g><path style="opacity:1" fill="#e0dede" d="M 334.5,237.5 C 336.843,238.344 339.176,239.344 341.5,240.5C 342.167,241.833 343.167,242.833 344.5,243.5C 344.567,244.959 344.234,246.292 343.5,247.5C 341.833,248.5 340.5,249.833 339.5,251.5C 337.254,252.455 334.921,253.122 332.5,253.5C 331.833,253.5 331.167,253.5 330.5,253.5C 332.985,248.467 332.985,243.467 330.5,238.5C 331.689,237.571 333.022,237.238 334.5,237.5 Z"/></g>
<g><path style="opacity:1" fill="#a67857" d="M 310.5,236.5 C 307.869,238.153 305.203,239.819 302.5,241.5C 299.507,242.833 297.173,244.833 295.5,247.5C 293.088,247.694 292.088,249.027 292.5,251.5C 290.536,255.474 288.369,255.474 286,251.5C 283.047,237.781 288.047,233.447 301,238.5C 304.112,237.517 307.278,236.85 310.5,236.5 Z"/></g>
<g><path style="opacity:1" fill="#53432f" d="M 200.5,234.5 C 211.547,232.604 221.88,234.604 231.5,240.5C 230.5,240.5 229.5,240.5 228.5,240.5C 228.85,245.031 228.183,249.364 226.5,253.5C 224.824,252.817 224.157,251.483 224.5,249.5C 222.053,249.615 220.053,250.615 218.5,252.5C 222.04,247.809 222.374,242.809 219.5,237.5C 218.975,236.808 218.308,236.308 217.5,236C 213.452,235.696 209.452,235.196 205.5,234.5C 203.833,234.5 202.167,234.5 200.5,234.5 Z"/></g>
<g><path style="opacity:1" fill="#eeecec" d="M 187.5,237.5 C 189.048,237.821 189.715,238.821 189.5,240.5C 188.686,242.631 188.186,244.964 188,247.5C 185.012,245.601 182.179,243.601 179.5,241.5C 179.5,241.167 179.5,240.833 179.5,240.5C 182.007,239.108 184.673,238.108 187.5,237.5 Z"/></g>
<g><path style="opacity:1" fill="#0c0704" d="M 338.5,234.5 C 338.5,235.833 339.167,236.5 340.5,236.5C 341.94,238.388 343.606,240.055 345.5,241.5C 345.333,241.833 345.167,242.167 345,242.5C 344.184,241.177 343.017,240.511 341.5,240.5C 339.176,239.344 336.843,238.344 334.5,237.5C 328.263,236.114 321.929,236.281 315.5,238C 317.568,238.687 319.568,238.52 321.5,237.5C 322.799,238.09 323.632,239.09 324,240.5C 325.132,245.884 324.298,250.884 321.5,255.5C 315.471,255.575 309.471,255.241 303.5,254.5C 302.989,251.972 302.322,249.472 301.5,247C 301.278,244.725 302.278,243.559 304.5,243.5C 306.681,243.716 308.347,242.883 309.5,241C 307.465,240.401 305.799,240.901 304.5,242.5C 303.508,242.672 302.842,242.338 302.5,241.5C 305.203,239.819 307.869,238.153 310.5,236.5C 319.608,233.347 328.941,232.68 338.5,234.5 Z"/></g>
<g><path style="opacity:1" fill="#3e3117" d="M 196.5,234.5 C 196.5,235.833 196.5,237.167 196.5,238.5C 196.307,242.566 196.64,246.566 197.5,250.5C 197.167,250.5 196.833,250.5 196.5,250.5C 194.254,249.545 191.921,248.878 189.5,248.5C 189.5,245.833 189.5,243.167 189.5,240.5C 189.715,238.821 189.048,237.821 187.5,237.5C 190.215,235.928 193.215,234.928 196.5,234.5 Z"/></g>
<g><path style="opacity:1" fill="#050302" d="M 205.5,234.5 C 209.452,235.196 213.452,235.696 217.5,236C 218.308,236.308 218.975,236.808 219.5,237.5C 222.374,242.809 222.04,247.809 218.5,252.5C 217.292,253.234 215.959,253.567 214.5,253.5C 208.649,253.332 202.983,252.332 197.5,250.5C 196.64,246.566 196.307,242.566 196.5,238.5C 201.787,242.053 204.787,240.72 205.5,234.5 Z"/></g>
<g><path style="opacity:1" fill="#b88a6b" d="M 213.5,230.5 C 223.395,231.601 233.228,231.601 243,230.5C 244.067,231.191 245.234,231.691 246.5,232C 251.377,238.868 250.377,244.535 243.5,249C 242.207,249.49 240.873,249.657 239.5,249.5C 239.5,248.5 239.5,247.5 239.5,246.5C 240.525,246.103 240.692,245.437 240,244.5C 232.664,236.751 223.83,232.084 213.5,230.5 Z"/></g>
<g><path style="opacity:1" fill="#1a130f" d="M 201.5,230.5 C 205.5,230.5 209.5,230.5 213.5,230.5C 223.83,232.084 232.664,236.751 240,244.5C 240.692,245.437 240.525,246.103 239.5,246.5C 236.527,244.853 233.86,242.853 231.5,240.5C 221.88,234.604 211.547,232.604 200.5,234.5C 199.167,234.5 197.833,234.5 196.5,234.5C 193.215,234.928 190.215,235.928 187.5,237.5C 184.673,238.108 182.007,239.108 179.5,240.5C 179.062,240.565 178.728,240.399 178.5,240C 183.412,235.544 189.079,232.71 195.5,231.5C 197.735,231.795 199.735,231.461 201.5,230.5 Z"/></g>
<g><path style="opacity:1" fill="#e2e1e0" d="M 196.5,234.5 C 197.833,234.5 199.167,234.5 200.5,234.5C 202.167,234.5 203.833,234.5 205.5,234.5C 204.787,240.72 201.787,242.053 196.5,238.5C 196.5,237.167 196.5,235.833 196.5,234.5 Z"/></g>
<g><path style="opacity:1" fill="#deb294" d="M 252.5,301.5 C 250.224,301.244 249.057,299.91 249,297.5C 248.589,288.043 248.922,278.71 250,269.5C 250.923,268.241 251.757,266.908 252.5,265.5C 259.371,263.787 266.371,262.787 273.5,262.5C 273.775,254.447 273.275,246.447 272,238.5C 269.231,232.876 266.231,232.543 263,237.5C 261.957,248.26 257.291,256.927 249,263.5C 245.121,261.811 241.288,259.978 237.5,258C 225.193,256.279 212.86,254.612 200.5,253C 198.68,252.8 197.347,251.966 196.5,250.5C 196.833,250.5 197.167,250.5 197.5,250.5C 202.983,252.332 208.649,253.332 214.5,253.5C 218.5,254.833 222.5,254.833 226.5,253.5C 229.518,253.296 232.518,252.963 235.5,252.5C 237.792,252.756 239.959,252.423 242,251.5C 242.956,252.579 243.789,253.745 244.5,255C 251.437,255.753 255.604,252.586 257,245.5C 257.227,240.103 257.894,234.769 259,229.5C 263.406,218.112 268.406,217.779 274,228.5C 275.913,238.572 277.079,248.739 277.5,259C 277.066,261.316 276.066,263.316 274.5,265C 269.377,268.044 264.044,270.711 258.5,273C 257.789,274.255 256.956,275.421 256,276.5C 250.337,284.225 249.17,292.558 252.5,301.5 Z"/></g>
<g><path style="opacity:1" fill="#3a3734" d="M 137.5,242.5 C 137.577,246.877 138.077,251.21 139,255.5C 143.116,271.404 150.616,285.404 161.5,297.5C 164.473,302.473 168.473,306.473 173.5,309.5C 178.869,313.523 184.869,316.189 191.5,317.5C 192.568,318.434 193.901,318.768 195.5,318.5C 197.607,319.468 199.941,319.802 202.5,319.5C 211.505,320.506 217.839,325.173 221.5,333.5C 226.074,349.122 236.407,355.622 252.5,353C 255.833,350.333 259.167,347.667 262.5,345C 264.473,344.505 266.473,344.338 268.5,344.5C 273.363,344.181 278.03,344.514 282.5,345.5C 275.046,347.399 267.379,348.899 259.5,350C 257.374,352.433 256.041,355.266 255.5,358.5C 252.656,360.103 249.656,360.603 246.5,360C 241.52,357.702 236.52,355.369 231.5,353C 225.311,346.675 219.644,340.009 214.5,333C 205.091,328.633 195.424,324.8 185.5,321.5C 183.076,320.97 180.743,320.136 178.5,319C 153.991,302.195 139.658,279.029 135.5,249.5C 135.927,246.99 136.593,244.657 137.5,242.5 Z"/></g>
<g><path style="opacity:0.996" fill="#130f0c" d="M 351.5,317.5 C 342.055,343.787 325.388,364.287 301.5,379C 283.791,385.938 265.457,387.938 246.5,385C 193.006,377.665 155.006,349.499 132.5,300.5C 133.338,300.158 133.672,299.492 133.5,298.5C 133.435,298.062 133.601,297.728 134,297.5C 141.684,310.197 150.35,322.197 160,333.5C 175.694,347.591 192.527,360.091 210.5,371C 220.025,373.914 229.358,377.247 238.5,381C 260.808,386.396 282.474,384.396 303.5,375C 309.285,368.885 315.452,363.051 322,357.5C 327.667,351.167 333.333,344.833 339,338.5C 343.428,331.591 347.595,324.591 351.5,317.5 Z"/></g>
<g><path style="opacity:1" fill="#c49575" d="M 290.5,317.5 C 292.167,317.5 293.833,317.5 295.5,317.5C 300.844,317.816 306.178,318.316 311.5,319C 315.142,323.083 316.475,327.916 315.5,333.5C 312.145,345.192 304.479,351.858 292.5,353.5C 288.833,351.833 286.167,349.167 284.5,345.5C 284.611,344.883 284.944,344.383 285.5,344C 284.167,343.667 282.833,343.333 281.5,343C 290.078,342.959 297.245,339.793 303,333.5C 303.495,331.527 303.662,329.527 303.5,327.5C 307.12,326.548 308.787,324.215 308.5,320.5C 300.862,319.687 293.196,319.354 285.5,319.5C 287.167,318.833 288.833,318.167 290.5,317.5 Z"/></g>
<g><path style="opacity:1" fill="#ae7760" d="M 285.5,319.5 C 293.196,319.354 300.862,319.687 308.5,320.5C 308.787,324.215 307.12,326.548 303.5,327.5C 296.522,335.106 287.855,338.272 277.5,337C 279.957,335.846 279.957,334.512 277.5,333C 266.393,332.508 255.393,331.175 244.5,329C 240.213,328.19 236.546,326.357 233.5,323.5C 255.038,329.302 276.705,329.802 298.5,325C 300.833,324 303.167,323 305.5,322C 286.705,325.212 267.705,326.212 248.5,325C 242.547,323.339 236.547,322.339 230.5,322C 231.056,322.383 231.389,322.883 231.5,323.5C 229.952,323.179 229.285,322.179 229.5,320.5C 244.486,318.576 259.32,319.242 274,322.5C 277.949,321.942 281.782,320.942 285.5,319.5 Z"/></g>
<g><path style="opacity:1" fill="#2e2b28" d="M 338.5,319.5 C 332.463,326.89 325.963,333.89 319,340.5C 314.304,348.638 307.804,355.138 299.5,360C 294.723,361.98 289.723,362.98 284.5,363C 281.672,365.248 278.672,367.248 275.5,369C 255.795,375.004 238.295,370.837 223,356.5C 214.585,341.416 202.418,330.583 186.5,324C 185.748,323.329 185.414,322.496 185.5,321.5C 195.424,324.8 205.091,328.633 214.5,333C 219.644,340.009 225.311,346.675 231.5,353C 236.52,355.369 241.52,357.702 246.5,360C 249.656,360.603 252.656,360.103 255.5,358.5C 256.041,355.266 257.374,352.433 259.5,350C 267.379,348.899 275.046,347.399 282.5,345.5C 283.167,345.5 283.833,345.5 284.5,345.5C 286.167,349.167 288.833,351.833 292.5,353.5C 293.492,355.026 294.992,355.693 297,355.5C 303.649,353.548 309.316,349.881 314,344.5C 318.348,332.32 326.515,323.986 338.5,319.5 Z"/></g>
<g><path style="opacity:1" fill="#bc8c6f" d="M 231.5,323.5 C 232.167,323.5 232.833,323.5 233.5,323.5C 236.546,326.357 240.213,328.19 244.5,329C 255.393,331.175 266.393,332.508 277.5,333C 279.957,334.512 279.957,335.846 277.5,337C 287.855,338.272 296.522,335.106 303.5,327.5C 303.662,329.527 303.495,331.527 303,333.5C 297.245,339.793 290.078,342.959 281.5,343C 282.833,343.333 284.167,343.667 285.5,344C 284.944,344.383 284.611,344.883 284.5,345.5C 283.833,345.5 283.167,345.5 282.5,345.5C 278.03,344.514 273.363,344.181 268.5,344.5C 268.389,343.883 268.056,343.383 267.5,343C 260.843,342.003 254.51,340.003 248.5,337C 244.275,332.541 239.275,329.041 233.5,326.5C 232.575,325.643 231.908,324.643 231.5,323.5 Z"/></g>
<g><path style="opacity:1" fill="#d8ac8e" d="M 290.5,317.5 C 288.833,318.167 287.167,318.833 285.5,319.5C 281.782,320.942 277.949,321.942 274,322.5C 259.32,319.242 244.486,318.576 229.5,320.5C 229.285,322.179 229.952,323.179 231.5,323.5C 231.908,324.643 232.575,325.643 233.5,326.5C 239.275,329.041 244.275,332.541 248.5,337C 254.51,340.003 260.843,342.003 267.5,343C 268.056,343.383 268.389,343.883 268.5,344.5C 266.473,344.338 264.473,344.505 262.5,345C 259.167,347.667 255.833,350.333 252.5,353C 236.407,355.622 226.074,349.122 221.5,333.5C 220.61,326.091 223.61,321.258 230.5,319C 238.669,318.539 246.836,318.039 255,317.5C 261.652,317.692 268.152,318.692 274.5,320.5C 279.701,318.867 285.034,317.867 290.5,317.5 Z"/></g>
<g><path style="opacity:1" fill="#805545" d="M 233.5,323.5 C 232.833,323.5 232.167,323.5 231.5,323.5C 231.389,322.883 231.056,322.383 230.5,322C 236.547,322.339 242.547,323.339 248.5,325C 267.705,326.212 286.705,325.212 305.5,322C 303.167,323 300.833,324 298.5,325C 276.705,329.802 255.038,329.302 233.5,323.5 Z"/></g>
</svg>
